<svg xmlns="http://www.w3.org/2000/svg" width="1500" height="786" viewBox="0 0 1500 786">
  <rect width="1500" height="786" fill="#ffffff"/>
  <g id="pantalla-9">
    <text x="60" y="74" font-family="Verdana, DejaVu Sans, sans-serif" font-size="14" font-weight="bold" fill="#3c4043" text-anchor="start">9. Ajustes (configuración)</text>
    <g transform="translate(60 90)">
      <rect width="300" height="620" rx="24" fill="#ffffff" stroke="#5f6368" stroke-width="2"/>
      <rect x="110" y="10" width="80" height="16" rx="8" fill="#9aa0a6" opacity="0.3"/>
      <text x="20" y="46" font-family="Verdana, DejaVu Sans, sans-serif" font-size="19" font-weight="bold" fill="#3c4043" text-anchor="start">Ajustes</text><rect x="20" y="84" width="260" height="96" rx="12" fill="#ebebeb" stroke="#9aa0a6" stroke-width="1.5"/><text x="34" y="108" font-family="Verdana, DejaVu Sans, sans-serif" font-size="12" font-weight="bold" fill="#3c4043" text-anchor="start">Cuenta</text><text x="34" y="120" font-family="Verdana, DejaVu Sans, sans-serif" font-size="14" font-weight="bold" fill="#3c4043" text-anchor="start">Ana Pérez</text><text x="34" y="138" font-family="Verdana, DejaVu Sans, sans-serif" font-size="11" font-weight="normal" fill="#3c4043" text-anchor="start">ana@correo.com</text><rect x="34" y="152" width="190" height="7" rx="3.5" fill="#9aa0a6" opacity="0.45"/><rect x="20" y="192" width="260" height="74" rx="12" fill="#ebebeb" stroke="#9aa0a6" stroke-width="1.5"/><text x="34" y="216" font-family="Verdana, DejaVu Sans, sans-serif" font-size="12" font-weight="bold" fill="#3c4043" text-anchor="start">Apariencia</text><rect x="34" y="232" width="70" height="22" rx="11" fill="#e0e0e0" stroke="#9aa0a6" stroke-width="1.5"/><text x="69" y="247" font-family="Verdana, DejaVu Sans, sans-serif" font-size="10" font-weight="bold" fill="#3c4043" text-anchor="middle">Sistema</text><rect x="110" y="232" width="60" height="22" rx="11" fill="#e0e0e0" stroke="#9aa0a6" stroke-width="1.5"/><text x="140" y="247" font-family="Verdana, DejaVu Sans, sans-serif" font-size="10" font-weight="bold" fill="#3c4043" text-anchor="middle">Claro</text><rect x="176" y="232" width="66" height="22" rx="11" fill="#e0e0e0" stroke="#9aa0a6" stroke-width="1.5"/><text x="209" y="247" font-family="Verdana, DejaVu Sans, sans-serif" font-size="10" font-weight="bold" fill="#3c4043" text-anchor="middle">Oscuro</text><rect x="20" y="278" width="260" height="92" rx="12" fill="#ebebeb" stroke="#9aa0a6" stroke-width="1.5"/><text x="34" y="302" font-family="Verdana, DejaVu Sans, sans-serif" font-size="12" font-weight="bold" fill="#3c4043" text-anchor="start">Aviso de vacunas</text><text x="34" y="316" font-family="Verdana, DejaVu Sans, sans-serif" font-size="10" font-weight="normal" fill="#3c4043" text-anchor="start">Marcar «Pronto» cuando falten:</text><rect x="34" y="330" width="62" height="22" rx="11" fill="#e0e0e0" stroke="#9aa0a6" stroke-width="1.5"/><text x="65" y="345" font-family="Verdana, DejaVu Sans, sans-serif" font-size="10" font-weight="bold" fill="#3c4043" text-anchor="middle">3 días</text><rect x="102" y="330" width="62" height="22" rx="11" fill="#e0e0e0" stroke="#9aa0a6" stroke-width="1.5"/><text x="133" y="345" font-family="Verdana, DejaVu Sans, sans-serif" font-size="10" font-weight="bold" fill="#3c4043" text-anchor="middle">7 días</text><rect x="170" y="330" width="66" height="22" rx="11" fill="#e0e0e0" stroke="#9aa0a6" stroke-width="1.5"/><text x="203" y="345" font-family="Verdana, DejaVu Sans, sans-serif" font-size="10" font-weight="bold" fill="#3c4043" text-anchor="middle">14 días</text><rect x="20" y="388" width="260" height="42" rx="21" fill="#ffffff" stroke="#9aa0a6" stroke-width="1.5"/><text x="150" y="414" font-family="Verdana, DejaVu Sans, sans-serif" font-size="12" font-weight="bold" fill="#3c4043" text-anchor="middle">Cerrar sesión</text><text x="150" y="456" font-family="Verdana, DejaVu Sans, sans-serif" font-size="11" font-weight="normal" fill="#3c4043" text-anchor="middle">Borrar mi cuenta y mis datos</text><rect x="12" y="558" width="276" height="50" rx="16" fill="#ffffff" stroke="#9aa0a6" stroke-width="1.5"/><circle cx="46.5" cy="576" r="9" fill="#f1f3f4" stroke="#9aa0a6" stroke-width="1.5"/><text x="46.5" y="598" font-family="Verdana, DejaVu Sans, sans-serif" font-size="9" font-weight="normal" fill="#3c4043" text-anchor="middle">Mascotas</text><circle cx="115.5" cy="576" r="9" fill="#f1f3f4" stroke="#9aa0a6" stroke-width="1.5"/><text x="115.5" y="598" font-family="Verdana, DejaVu Sans, sans-serif" font-size="9" font-weight="normal" fill="#3c4043" text-anchor="middle">Vacunas</text><circle cx="184.5" cy="576" r="9" fill="#e0e0e0" stroke="#9aa0a6" stroke-width="1.5"/><text x="184.5" y="598" font-family="Verdana, DejaVu Sans, sans-serif" font-size="9" font-weight="bold" fill="#3c4043" text-anchor="middle">Ajustes</text><circle cx="253.5" cy="576" r="9" fill="#f1f3f4" stroke="#9aa0a6" stroke-width="1.5"/><text x="253.5" y="598" font-family="Verdana, DejaVu Sans, sans-serif" font-size="9" font-weight="normal" fill="#3c4043" text-anchor="middle">Créditos</text>
    </g>
  </g>
  <g id="pantalla-10">
    <text x="420" y="74" font-family="Verdana, DejaVu Sans, sans-serif" font-size="14" font-weight="bold" fill="#3c4043" text-anchor="start">10. Créditos</text>
    <g transform="translate(420 90)">
      <rect width="300" height="620" rx="24" fill="#ffffff" stroke="#5f6368" stroke-width="2"/>
      <rect x="110" y="10" width="80" height="16" rx="8" fill="#9aa0a6" opacity="0.3"/>
      <text x="20" y="46" font-family="Verdana, DejaVu Sans, sans-serif" font-size="19" font-weight="bold" fill="#3c4043" text-anchor="start">Créditos</text><rect x="20" y="84" width="260" height="84" rx="12" fill="#f1f3f4" stroke="#9aa0a6" stroke-width="1.5"/><circle cx="58" cy="126" r="24" fill="#e0e0e0" stroke="#9aa0a6" stroke-width="1.5"/><text x="96" y="120" font-family="Verdana, DejaVu Sans, sans-serif" font-size="15" font-weight="bold" fill="#3c4043" text-anchor="start">Huellitas</text><text x="96" y="138" font-family="Verdana, DejaVu Sans, sans-serif" font-size="10" font-weight="normal" fill="#3c4043" text-anchor="start">Versión 1.0.0</text><rect x="20" y="182" width="260" height="196" rx="12" fill="#ebebeb" stroke="#9aa0a6" stroke-width="1.5"/><text x="34" y="206" font-family="Verdana, DejaVu Sans, sans-serif" font-size="12" font-weight="bold" fill="#3c4043" text-anchor="start">Trabajo académico</text><text x="34" y="222" font-family="Verdana, DejaVu Sans, sans-serif" font-size="10" font-weight="normal" fill="#3c4043" text-anchor="start">Estudiante</text><rect x="140" y="214" width="110" height="8" rx="4" fill="#9aa0a6" opacity="0.45"/><text x="34" y="246" font-family="Verdana, DejaVu Sans, sans-serif" font-size="10" font-weight="normal" fill="#3c4043" text-anchor="start">Programa</text><rect x="140" y="238" width="110" height="8" rx="4" fill="#9aa0a6" opacity="0.45"/><text x="34" y="270" font-family="Verdana, DejaVu Sans, sans-serif" font-size="10" font-weight="normal" fill="#3c4043" text-anchor="start">Universidad</text><rect x="140" y="262" width="110" height="8" rx="4" fill="#9aa0a6" opacity="0.45"/><text x="34" y="294" font-family="Verdana, DejaVu Sans, sans-serif" font-size="10" font-weight="normal" fill="#3c4043" text-anchor="start">Materia</text><rect x="140" y="286" width="110" height="8" rx="4" fill="#9aa0a6" opacity="0.45"/><text x="34" y="318" font-family="Verdana, DejaVu Sans, sans-serif" font-size="10" font-weight="normal" fill="#3c4043" text-anchor="start">Docente</text><rect x="140" y="310" width="110" height="8" rx="4" fill="#9aa0a6" opacity="0.45"/><text x="34" y="342" font-family="Verdana, DejaVu Sans, sans-serif" font-size="10" font-weight="normal" fill="#3c4043" text-anchor="start">Periodo</text><rect x="140" y="334" width="110" height="8" rx="4" fill="#9aa0a6" opacity="0.45"/><rect x="20" y="392" width="260" height="100" rx="12" fill="#ebebeb" stroke="#9aa0a6" stroke-width="1.5"/><text x="34" y="416" font-family="Verdana, DejaVu Sans, sans-serif" font-size="12" font-weight="bold" fill="#3c4043" text-anchor="start">Con qué está hecha</text><text x="34" y="436" font-family="Verdana, DejaVu Sans, sans-serif" font-size="10" font-weight="normal" fill="#3c4043" text-anchor="start">•</text><rect x="48" y="429" width="170" height="8" rx="4" fill="#9aa0a6" opacity="0.45"/><text x="34" y="458" font-family="Verdana, DejaVu Sans, sans-serif" font-size="10" font-weight="normal" fill="#3c4043" text-anchor="start">•</text><rect x="48" y="451" width="170" height="8" rx="4" fill="#9aa0a6" opacity="0.45"/><text x="34" y="480" font-family="Verdana, DejaVu Sans, sans-serif" font-size="10" font-weight="normal" fill="#3c4043" text-anchor="start">•</text><rect x="48" y="473" width="170" height="8" rx="4" fill="#9aa0a6" opacity="0.45"/><rect x="12" y="558" width="276" height="50" rx="16" fill="#ffffff" stroke="#9aa0a6" stroke-width="1.5"/><circle cx="46.5" cy="576" r="9" fill="#f1f3f4" stroke="#9aa0a6" stroke-width="1.5"/><text x="46.5" y="598" font-family="Verdana, DejaVu Sans, sans-serif" font-size="9" font-weight="normal" fill="#3c4043" text-anchor="middle">Mascotas</text><circle cx="115.5" cy="576" r="9" fill="#f1f3f4" stroke="#9aa0a6" stroke-width="1.5"/><text x="115.5" y="598" font-family="Verdana, DejaVu Sans, sans-serif" font-size="9" font-weight="normal" fill="#3c4043" text-anchor="middle">Vacunas</text><circle cx="184.5" cy="576" r="9" fill="#f1f3f4" stroke="#9aa0a6" stroke-width="1.5"/><text x="184.5" y="598" font-family="Verdana, DejaVu Sans, sans-serif" font-size="9" font-weight="normal" fill="#3c4043" text-anchor="middle">Ajustes</text><circle cx="253.5" cy="576" r="9" fill="#e0e0e0" stroke="#9aa0a6" stroke-width="1.5"/><text x="253.5" y="598" font-family="Verdana, DejaVu Sans, sans-serif" font-size="9" font-weight="bold" fill="#3c4043" text-anchor="middle">Créditos</text>
    </g>
  </g>
</svg>
